<?xml version="1.0" standalone="no"?>
<!DOCTYPE svg PUBLIC "-//W3C//DTD SVG 20010904//EN"
 "http://www.w3.org/TR/2001/REC-SVG-20010904/DTD/svg10.dtd">
<svg version="1.0" xmlns="http://www.w3.org/2000/svg"
 width="260.000000pt" height="260.000000pt" viewBox="0 0 260.000000 260.000000"
 preserveAspectRatio="xMidYMid meet">
<metadata>
Created by potrace 1.14, written by Peter Selinger 2001-2017
</metadata>
<g transform="translate(0.000000,260.000000) scale(0.100000,-0.100000)"
fill="#000000" stroke="none">
<path d="M1300 2519 c-45 -21 -78 -28 -157 -34 -22 -1 -46 -6 -52 -9 -6 -4
-11 -3 -11 2 0 13 -56 35 -69 27 -8 -4 -8 -12 0 -27 8 -15 8 -22 -1 -28 -7 -4
-9 -13 -5 -20 6 -10 -4 -12 -46 -7 -30 3 -63 9 -74 13 l-20 7 20 -17 c19 -16
18 -17 -35 -11 -120 14 -204 0 -253 -41 -16 -13 -24 -24 -18 -24 5 0 13 5 16
10 9 15 77 41 95 37 8 -3 1 -8 -17 -12 -35 -8 -38 -12 -24 -34 7 -11 15 -11
41 -2 50 17 52 14 16 -24 -19 -19 -39 -35 -45 -35 -5 0 -31 -18 -56 -40 -25
-22 -50 -40 -54 -40 -5 0 -18 -22 -30 -50 -14 -33 -31 -55 -52 -66 -35 -18
-84 -113 -95 -186 -7 -38 -6 -41 8 -27 8 8 18 25 22 37 10 32 64 82 88 82 15
0 18 -4 13 -17 -49 -121 -68 -196 -73 -278 l-4 -90 49 -105 c28 -58 53 -123
57 -145 4 -22 10 -49 13 -60 l6 -20 8 20 c4 11 8 50 8 88 1 61 3 68 24 76 41
15 115 22 122 11 3 -5 0 -10 -8 -10 -20 0 -64 -36 -55 -45 4 -4 19 2 34 14 28
22 115 30 142 12 8 -4 -11 -8 -45 -7 -60 0 -116 -23 -128 -52 -8 -21 -3 -23
31 -13 16 5 25 10 20 10 -14 2 15 31 30 31 8 0 14 -10 14 -25 0 -30 20 -41 92
-48 61 -6 82 3 93 40 5 17 -4 33 -37 70 -59 66 -68 72 -111 79 -20 4 -40 10
-42 14 -3 5 -15 6 -28 3 l-22 -6 23 25 c12 13 22 29 22 34 0 17 53 60 90 73
19 7 45 18 57 23 29 14 74 2 67 -17 -4 -8 -4 -15 -1 -15 9 0 57 88 57 104 0
19 20 22 21 4 0 -7 9 5 19 27 13 29 19 34 20 20 1 -11 7 0 14 25 12 44 13 45
54 45 25 0 46 6 51 14 5 8 16 11 30 6 13 -4 28 -1 36 5 13 10 15 8 15 -14 0
-14 4 -26 10 -26 5 0 7 -7 4 -15 -4 -8 -1 -15 5 -15 6 0 11 7 11 15 0 18 14
19 28 3 6 -7 22 -44 37 -83 24 -62 26 -80 22 -157 -2 -49 -2 -88 1 -88 3 0 17
10 30 23 17 15 26 18 29 9 3 -6 9 -10 14 -6 5 3 9 -1 9 -9 0 -10 8 -13 26 -9
14 2 21 7 16 11 -15 9 -21 103 -9 126 6 11 11 23 12 27 0 13 15 21 15 9 0 -7
6 -11 13 -8 40 15 72 -81 42 -127 -10 -14 -26 -26 -36 -26 -28 0 -23 -16 10
-30 16 -6 35 -24 41 -40 6 -15 21 -30 32 -33 11 -3 17 -10 14 -16 -7 -11 14
-51 26 -51 5 0 8 7 8 17 0 23 9 12 13 -17 2 -13 12 -27 23 -30 12 -5 19 -17
20 -38 1 -17 5 -52 8 -77 7 -42 6 -45 -15 -42 -20 2 -23 -5 -36 -73 -8 -41
-14 -90 -13 -109 0 -18 -4 -38 -9 -45 -6 -6 -6 -25 -1 -46 7 -32 15 -18 11 18
-1 6 5 12 14 12 8 0 15 6 15 13 1 6 8 -1 16 -17 15 -27 15 -29 -10 -55 -20
-20 -25 -35 -22 -59 2 -18 -1 -35 -5 -38 -5 -3 -7 -10 -3 -15 3 -6 -3 -13 -13
-15 -14 -4 -19 -13 -18 -35 2 -24 -2 -29 -22 -29 -13 0 -23 6 -23 15 0 13 -33
-10 -65 -46 -5 -6 -23 -24 -39 -40 -15 -16 -23 -29 -17 -29 6 0 11 -7 11 -15
0 -18 -16 -20 -23 -2 -4 9 -8 8 -16 -3 -9 -13 -11 -13 -11 3 0 9 -4 17 -9 17
-5 0 -7 -8 -4 -18 4 -16 -1 -18 -31 -14 -23 3 -36 0 -36 -8 0 -7 -8 -9 -20 -5
-14 5 -20 2 -20 -9 0 -9 -7 -16 -15 -16 -8 0 -15 -5 -15 -11 0 -6 -6 -17 -14
-24 -10 -11 -16 -11 -25 -2 -10 9 -14 8 -22 -6 -6 -9 -21 -17 -35 -17 -17 0
-23 -4 -18 -12 5 -8 0 -9 -15 -5 -15 3 -24 0 -28 -9 -3 -8 -11 -13 -19 -10 -7
3 -30 0 -50 -6 -28 -7 -54 -7 -94 2 -83 17 -90 20 -90 36 0 8 -10 14 -22 14
-23 1 -78 66 -78 93 -1 16 -35 57 -48 57 -5 0 -12 10 -15 22 -4 12 -9 19 -12
16 -3 -3 17 -49 45 -101 50 -93 114 -167 145 -167 8 0 24 -9 35 -20 21 -21 29
-21 263 -20 59 0 107 4 107 8 0 5 19 9 43 10 59 4 78 11 100 38 13 17 29 24
52 24 26 0 39 6 51 25 9 14 23 25 30 25 8 0 14 7 14 16 0 8 5 12 10 9 6 -3 23
8 38 27 15 18 34 39 42 48 21 22 50 67 50 80 0 17 34 90 42 90 5 0 8 12 8 28
0 34 29 80 40 62 5 -8 14 -3 29 16 29 36 28 59 -1 49 -53 -16 -63 -12 -61 25
5 99 11 149 23 188 12 38 20 47 43 43 4 0 8 5 9 12 0 6 2 17 3 22 2 6 3 16 4
23 0 6 7 12 15 12 21 0 41 29 29 41 -12 12 29 59 52 59 8 0 26 11 41 25 15 14
21 25 15 25 -7 0 -9 5 -5 11 13 22 23 -8 26 -81 l3 -74 28 83 c17 51 30 117
34 166 6 86 -12 291 -29 335 -6 14 -12 50 -14 80 -5 82 -61 188 -143 269 -36
36 -58 60 -48 52 10 -8 17 -9 17 -3 0 6 -10 17 -22 23 -13 7 -37 24 -55 40
-26 22 -29 28 -15 31 16 3 -47 19 -128 32 -22 4 -53 22 -80 46 -24 22 -60 45
-79 51 -20 6 -40 14 -46 18 -5 3 -19 7 -30 8 -11 2 -24 8 -29 13 -6 6 -19 10
-30 10 -21 1 -21 1 -2 15 19 14 18 15 -10 15 -16 0 -49 -10 -74 -21z m-537
-116 c-7 -2 -19 -2 -25 0 -7 3 -2 5 12 5 14 0 19 -2 13 -5z m-73 -167 c0 -3
-4 -8 -10 -11 -5 -3 -10 -1 -10 4 0 6 5 11 10 11 6 0 10 -2 10 -4z m-76 -41
c-4 -8 -10 -15 -14 -15 -5 0 -23 -12 -40 -26 -17 -15 -33 -24 -36 -21 -11 11
32 57 61 66 17 5 31 10 32 10 1 1 0 -6 -3 -14z m856 -415 c0 -4 -7 -10 -15
-14 -10 -4 -15 1 -15 14 0 13 5 18 15 14 8 -4 15 -10 15 -14z m-3 -42 c-3 -8
-6 -5 -6 6 -1 11 2 17 5 13 3 -3 4 -12 1 -19z m88 12 c3 -5 1 -10 -4 -10 -6 0
-11 5 -11 10 0 6 2 10 4 10 3 0 8 -4 11 -10z m-745 -340 c0 -5 -5 -10 -11 -10
-5 0 -7 5 -4 10 3 6 8 10 11 10 2 0 4 -4 4 -10z m104 -42 c-3 -4 -16 -8 -30
-8 -19 0 -24 5 -24 26 l0 25 29 -17 c17 -10 28 -21 25 -26z m836 -312 c0 -6
-7 -1 -15 10 -8 10 -15 23 -15 28 0 6 7 1 15 -10 8 -10 15 -23 15 -28z m-18
-61 c-4 -6 -8 -2 -10 8 -2 9 -8 17 -13 17 -5 0 -9 8 -9 18 0 14 4 12 19 -8 11
-13 17 -29 13 -35z"/>
<path d="M360 1846 c0 -23 16 -27 17 -5 1 10 -2 19 -8 19 -5 0 -9 -6 -9 -14z"/>
<path d="M900 1579 c-17 -30 -6 -34 14 -4 9 14 12 25 7 25 -6 0 -15 -9 -21
-21z"/>
<path d="M1174 1529 c-27 -8 -31 -13 -32 -46 -1 -21 -6 -53 -11 -70 -12 -41
-3 -42 34 -3 16 17 38 30 49 30 18 -1 19 -2 6 -13 -21 -17 -24 -47 -5 -47 8 0
24 9 35 20 28 28 60 26 60 -2 0 -46 13 -53 67 -39 26 7 62 13 80 13 23 0 32 5
37 20 9 35 -11 56 -72 74 -81 25 -86 35 -8 16 63 -15 90 -12 70 8 -5 5 -25 11
-44 13 -19 2 -46 10 -60 19 -28 18 -154 22 -206 7z m215 -69 c36 -10 85 -39
78 -46 -2 -2 -17 3 -33 11 -16 8 -57 16 -91 17 -48 2 -59 6 -51 16 12 14 51
16 97 2z"/>
<path d="M1190 1350 c8 -5 20 -10 25 -10 6 0 3 5 -5 10 -8 5 -19 10 -25 10 -5
0 -3 -5 5 -10z"/>
<path d="M1095 1180 c3 -5 11 -10 16 -10 6 0 7 5 4 10 -3 6 -11 10 -16 10 -6
0 -7 -4 -4 -10z"/>
<path d="M1170 1101 c0 -29 -18 -36 -90 -32 -55 2 -68 -1 -84 -18 -12 -13 -23
-17 -35 -12 -9 4 -32 16 -52 25 -20 10 -44 16 -53 14 -13 -2 -11 -8 10 -35 26
-33 69 -47 58 -19 -5 12 0 13 30 4 28 -9 42 -8 61 2 16 8 40 11 70 7 59 -8
100 10 103 47 1 14 -3 28 -8 31 -6 3 -10 -3 -10 -14z"/>
<path d="M1832 1079 c-12 -18 -11 -20 5 -17 10 2 19 11 21 21 5 23 -10 21 -26
-4z"/>
<path d="M1830 966 c0 -10 9 -16 21 -16 24 0 21 23 -4 28 -10 2 -17 -3 -17
-12z"/>
<path d="M805 891 c-10 -17 35 -66 80 -89 35 -18 57 -20 175 -18 117 2 140 5
175 24 48 26 80 50 74 56 -2 2 -57 6 -121 8 -116 3 -153 -8 -48 -14 46 -3 55
-7 55 -23 0 -23 -22 -26 -163 -27 -101 0 -142 15 -142 54 0 18 4 20 38 15 20
-3 55 -8 77 -11 39 -6 39 -6 -8 8 -69 20 -183 30 -192 17z"/>
<path d="M1810 517 c0 -9 -10 -25 -22 -36 -19 -18 -20 -24 -9 -45 28 -51 -18
-148 -121 -258 -21 -22 -38 -46 -38 -53 0 -7 -19 -29 -42 -49 -38 -31 -40 -36
-21 -36 13 0 64 13 115 29 67 22 97 37 114 58 18 22 25 25 35 16 9 -9 25 -5
73 19 88 44 88 43 50 84 -38 39 -40 50 -19 78 14 19 15 18 26 -12 6 -18 19
-37 30 -42 16 -9 15 -5 -6 39 -14 27 -25 52 -25 56 0 5 -13 37 -30 71 -23 50
-36 65 -57 70 -16 4 -34 11 -40 17 -9 7 -13 5 -13 -6z"/>
<path d="M896 151 l-59 -59 68 -21 c37 -12 70 -19 72 -17 6 6 -9 156 -16 156
-4 0 -33 -27 -65 -59z"/>
</g>
</svg>
