<?xml version="1.0" standalone="no"?>
<!DOCTYPE svg PUBLIC "-//W3C//DTD SVG 20010904//EN"
 "http://www.w3.org/TR/2001/REC-SVG-20010904/DTD/svg10.dtd">
<svg version="1.0" xmlns="http://www.w3.org/2000/svg"
 width="96.000000pt" height="96.000000pt" viewBox="0 0 96.000000 96.000000"
 preserveAspectRatio="xMidYMid meet">
<metadata>
Created by potrace 1.14, written by Peter Selinger 2001-2017
</metadata>
<g transform="translate(0.000000,96.000000) scale(0.100000,-0.100000)"
fill="#000000" stroke="none">
<path d="M197 924 c-3 -15 -1 -39 3 -54 7 -25 5 -28 -40 -44 -36 -13 -57 -15
-82 -8 -43 12 -58 6 -58 -24 0 -30 29 -104 41 -104 17 0 9 -18 -26 -56 -19
-21 -35 -46 -35 -57 0 -24 21 -45 43 -41 24 3 22 -32 -4 -81 -41 -78 -41 -83
-11 -99 15 -7 37 -12 49 -10 13 2 23 0 23 -5 0 -5 11 -22 24 -38 17 -20 21
-34 15 -48 -4 -11 -8 -29 -8 -41 -1 -31 57 -99 124 -146 58 -40 61 -41 164
-46 58 -2 107 -8 109 -12 4 -10 61 -2 103 15 20 7 54 16 75 19 22 2 51 9 66
15 27 10 58 56 58 86 0 9 18 42 40 73 38 54 40 61 42 140 1 78 3 82 24 82 20
0 23 4 20 35 -2 19 -27 79 -55 134 -44 87 -48 101 -35 109 42 24 -34 84 -100
79 -25 -2 -30 2 -33 28 -11 83 -40 122 -66 85 -12 -17 -16 -18 -72 -4 -33 8
-106 17 -163 19 -56 3 -121 9 -145 15 -69 16 -84 13 -90 -16z"/>
</g>
</svg>
